<svg xmlns="http://www.w3.org/2000/svg" viewBox="0 0 256 256">
  <defs>
    <style>
      .cls-1 {
        fill: #eaeffe;
      }

      .cls-2 {
        fill: #f3f6fe;
      }

      .cls-3 {
        fill: #f1f5fe;
      }

      .cls-4 {
        fill: #f4f6fe;
      }

      .cls-5 {
        fill: #f4f7fe;
      }

      .cls-6 {
        fill: #8e8efe;
      }
    </style>
  </defs>
  <g id="图层_2" data-name="图层 2">
    <g id="图层_1-2" data-name="图层 1">
      <g>
        <path class="cls-1" d="M0,132v-8c2-3.17.56-6.68,1-10,.67-4.41,1.18-8.86,2.05-13.23A122.35,122.35,0,0,1,28.94,46.93,126.66,126.66,0,0,1,114,1c3-.42,6.19,1,9-1h10c2.82,2,6,.58,9,1,4.51,0,8.85,1.14,13.23,2a122.94,122.94,0,0,1,53.83,25.91A126.66,126.66,0,0,1,255,114c.44,3.32-1,6.83,1,10v8c-2,2.82-.59,6-1,9-.17,8.72-2.46,17.06-5,25.28-8.56,27.65-25.15,49.63-48.55,66.36A119.91,119.91,0,0,1,141,255c-3,.41-6.18-1-9,1h-8c-2.82-2-6-.59-9-1a112.58,112.58,0,0,1-38.35-9.78,128.12,128.12,0,0,1-60-54.25A117.16,117.16,0,0,1,1,141C.59,138,2,134.82,0,132Zm143-23.36c2.45.38,3.64,1.85,5.07,2.88A48.53,48.53,0,0,0,179.43,121c5.7-.26,8.72-3.59,8.55-8.91-.16-5-3.31-7.93-8.77-8.14-19-.72-32-12.12-35.31-30.95-1.56-9-1.57-8.65-10.77-9.09-5.15-.25-6.34,1.34-6.3,6.35.25,27.67.3,55.33,0,83-.08,6.55.54,13.83-6.73,18.21a23.16,23.16,0,0,1-30.16-5.19c-8.75-11.14-4.61-27.19,8.23-31.78,4.14-1.48,8.48-1.4,12.83-1.46,5.13-.07,9.11-4.18,9-8.81-.17-4.86-3.55-8.11-8.79-8.3-2.83-.1-5.67-.07-8.5,0-21.72.8-38.71,22.67-34.16,43.93,5,23.49,27.06,37.22,50.38,30.83C132.5,186.94,144,177.12,143,159.62c-.57-10.3-.09-20.66-.09-31Z"/>
        <path class="cls-2" d="M0,114H1c-.44,3.32,1,6.83-1,10Z"/>
        <path class="cls-2" d="M255,114h1v10C254,120.83,255.44,117.32,255,114Z"/>
        <path class="cls-3" d="M114,1c0-.34,0-.67,0-1h9C120.18,2,117,.58,114,1Z"/>
        <path class="cls-3" d="M142,0c0,.33,0,.66,0,1-3-.42-6.19,1-9-1Z"/>
        <path class="cls-2" d="M1,141H0v-9C2,134.82.59,138,1,141Z"/>
        <path class="cls-2" d="M256,141h-1c.4-3-1-6.19,1-9Z"/>
        <path class="cls-4" d="M115,256v-1c3,.41,6.18-1,9,1Z"/>
        <path class="cls-5" d="M141,255v1h-9C134.82,254,138,255.41,141,255Z"/>
        <path class="cls-6" d="M143,108.64v20c0,10.34-.48,20.7.09,31,1,17.5-10.54,27.32-24.19,31.06-23.32,6.39-45.35-7.34-50.38-30.83-4.55-21.26,12.44-43.13,34.16-43.93,2.83-.11,5.67-.14,8.5,0,5.24.19,8.62,3.44,8.79,8.3.16,4.63-3.82,8.74-9,8.81-4.35.06-8.69,0-12.83,1.46-12.84,4.59-17,20.64-8.23,31.78a23.16,23.16,0,0,0,30.16,5.19c7.27-4.38,6.65-11.66,6.73-18.21.33-27.66.28-55.32,0-83,0-5,1.15-6.6,6.3-6.35,9.2.44,9.21.12,10.77,9.09,3.27,18.83,16.27,30.23,35.31,31,5.46.21,8.61,3.13,8.77,8.14.17,5.32-2.85,8.65-8.55,8.91A48.53,48.53,0,0,1,148,111.52C146.59,110.49,145.4,109,143,108.64Z"/>
      </g>
    </g>
  </g>
</svg>
