<svg xmlns="http://www.w3.org/2000/svg" viewBox="0 0 507.74 507.38">
  <defs>
    <style>
      .cls-1 {
        fill: #e9f7fe;
      }

      .cls-2 {
        fill: #ecf8fe;
      }

      .cls-3 {
        fill: #74cffe;
      }

      .cls-4 {
        fill: #76d0fe;
      }

      .cls-5 {
        fill: #75d0fe;
      }
    </style>
  </defs>
  <g id="图层_2" data-name="图层 2">
    <g id="图层_1-2" data-name="图层 1">
      <g>
        <path class="cls-1" d="M507.74,227.86v53.52c-3.25,5.2-2.8,11.3-3.83,17-8,44-26.16,83.64-54.86,117.63-37.61,44.54-85.21,73.72-142.62,86.2-8.86,1.93-18.27,1-26.66,5.21h-11.9q-5-4.36-9.91,0H250q-5.94-4.47-11.89,0h-11.9c-6.56-3.45-13.93-2.87-20.88-4.31-59.59-12.39-109.9-41.64-147.83-88.89C9.34,354.17-9.34,285,4.39,208.63,16.28,142.45,50.34,89.47,104,49.2,136.67,24.65,173.4,9.78,214,3.3a250.73,250.73,0,0,1,93,2.22c46.74,10,87.44,31.47,122.11,65,37.68,36.4,62.1,79.64,72.95,130.74C503.88,210.11,505.83,219,507.74,227.86ZM209.45,174.12l-.82,2.24c-11.46,0-22.92,0-34.38,0-24.42,0-38.38,13.11-38.75,37.66q-.72,49.54,0,99.11c.33,22.42,14,35.64,36.07,35.8,5.66,0,9,1.15,10.85,7.16,1.61,5.29,5.94,8.84,12.08,8.34,5.26-.44,10.41-2.74,11.31-8.06,1.28-7.54,6-7.38,11.5-7.35,24.45.09,48.9.19,73.34-.07,6.25-.07,10.6,1,12.94,7.68,1.89,5.41,6.87,8.23,12.64,7.68,5.17-.48,9.86-3.16,10.79-8.7,1-5.71,4.19-6.43,9-6.63,25.3-1.05,36.66-13.17,36.68-38.89q.06-47.09,0-94.15c0-25.91-13.75-39.55-39.83-39.58-11.3,0-22.6,0-36.83,0,7.47-6.81,12.33-11.7,17.69-16,4.11-3.27,4.87-6.52.66-9.53-3.46-2.48-4.89-11.1-12.1-4.52-8.77,8-18,15.51-26.77,23.49-10.27,9.32-32.48,9.45-43.06.07-8.39-7.44-17.35-14.3-25.16-22.3-7.11-7.28-9.83-.72-13.81,3-5.84,5.5-1.2,8.37,2.74,11.67C200.78,166.1,205.06,170.17,209.45,174.12Z"/>
        <path class="cls-2" d="M238.14,507.38q5.94-4.47,11.89,0Z"/>
        <path class="cls-2" d="M258,507.38q4.95-4.36,9.91,0Z"/>
        <path class="cls-3" d="M209.45,174.12c-4.39-4-8.67-8-13.19-11.81-3.94-3.3-8.58-6.17-2.74-11.67,4-3.75,6.7-10.31,13.81-3,7.81,8,16.77,14.86,25.16,22.3,10.58,9.38,32.79,9.25,43.06-.07,8.79-8,18-15.49,26.77-23.49,7.21-6.58,8.64,2,12.1,4.52,4.21,3,3.45,6.26-.66,9.53-5.36,4.26-10.22,9.15-17.69,16,14.23,0,25.53,0,36.83,0C359,176.4,372.71,190,372.73,216q0,47.07,0,94.15c0,25.72-11.38,37.84-36.68,38.89-4.82.2-8.05.92-9,6.63-.93,5.54-5.62,8.22-10.79,8.7-5.77.55-10.75-2.27-12.64-7.68-2.34-6.71-6.69-7.75-12.94-7.68-24.44.26-48.89.16-73.34.07-5.55,0-10.22-.19-11.5,7.35-.9,5.32-6,7.62-11.31,8.06-6.14.5-10.47-3.05-12.08-8.34-1.83-6-5.19-7.12-10.85-7.16-22.07-.16-35.74-13.38-36.07-35.8q-.73-49.54,0-99.11c.37-24.55,14.33-37.61,38.75-37.66,11.46,0,22.92,0,34.38,0Zm44,155.08q40.14,0,80.29,0c13.64,0,18.46-3.43,18.72-17.09q1-49.55,0-99.11c-.24-12.85-5.48-16.78-18.25-16.79q-80.28-.07-160.57,0c-12.88,0-17,4.25-17,17.4q-.09,49.56,0,99.12c0,12.83,3.62,16.43,16.49,16.46C199.94,329.24,226.7,329.2,253.46,329.2Z"/>
        <path class="cls-1" d="M253.46,329.2c-26.76,0-53.52,0-80.29,0-12.87,0-16.47-3.63-16.49-16.46q-.08-49.56,0-99.12c0-13.15,4.1-17.38,17-17.4q80.28-.09,160.57,0c12.77,0,18,3.94,18.25,16.79q.9,49.55,0,99.11c-.26,13.66-5.08,17.07-18.72,17.09Q293.6,329.24,253.46,329.2Zm14.92-26.06c7.82.24,12.68-3.45,16.8-8.45,2.52-3.05,3.89-6.53.53-9.63s-6.59-2-9.35,1.3c-6,7.12-10.56,6.27-14.66-2.12-3.22-6.57-9.23-7-12.56-.89-4.61,8.51-9.16,11-16,2.4-2.41-3-5.67-3.34-8.7-.89s-1.8,5.22-.42,8c3.88,7.87,13.78,12.94,21.47,9.25,6.87-3.3,12.63-4.17,19,.2C265.72,303.17,267.65,303,268.38,303.14Zm-77.94-45.73c10-2,21.64-4.22,33.24-6.59,3.8-.78,6.93-1.93,5-7.21-1.62-4.4-.67-11-8.24-9.59-11.63,2.16-23.12,5.1-34.74,7.36-4.48.87-5.54,2.94-3.89,6.85C183.37,251.92,181,258.57,190.44,257.41Zm129.79-.17c8,1.28,8.82-3,9.42-7.53.39-2.92,3.46-6.71-2-7.92-12.5-2.78-25-5.65-37.63-7.79-6.36-1.08-5.63,4.67-6.69,8.69s-1.21,6.92,3.91,7.89C298.88,252.8,310.46,255.25,320.23,257.24Z"/>
        <path class="cls-4" d="M268.38,303.14c-.73-.14-2.66,0-3.89-.81-6.39-4.37-12.15-3.5-19-.2-7.69,3.69-17.59-1.38-21.47-9.25-1.38-2.8-2.5-5.66.42-8s6.29-2.13,8.7.89c6.86,8.59,11.41,6.11,16-2.4,3.33-6.15,9.34-5.68,12.56.89,4.1,8.39,8.65,9.24,14.66,2.12,2.76-3.28,6.07-4.33,9.35-1.3s2,6.58-.53,9.63C281.06,299.69,276.2,303.38,268.38,303.14Z"/>
        <path class="cls-4" d="M190.44,257.41c-9.41,1.16-7.07-5.49-8.64-9.18-1.65-3.91-.59-6,3.89-6.85,11.62-2.26,23.11-5.2,34.74-7.36,7.57-1.4,6.62,5.19,8.24,9.59,1.94,5.28-1.19,6.43-5,7.21C212.08,253.19,200.45,255.43,190.44,257.41Z"/>
        <path class="cls-5" d="M320.23,257.24c-9.77-2-21.35-4.44-33-6.66-5.12-1-5-3.82-3.91-7.89s.33-9.77,6.69-8.69c12.62,2.14,25.13,5,37.63,7.79,5.43,1.21,2.36,5,2,7.92C329.05,254.21,328.28,258.52,320.23,257.24Z"/>
      </g>
    </g>
  </g>
</svg>
